<svg xmlns="http://www.w3.org/2000/svg" viewBox="0 0 24 24"><path fill="#fff" d="M12 .5C5.73.5.75 5.48.75 11.77c0 4.86 3.16 8.98 7.55 10.44.55.1.75-.24.75-.53v-1.84c-3.07.67-3.72-1.48-3.72-1.48-.5-1.28-1.22-1.62-1.22-1.62-.99-.68.08-.67.08-.67 1.1.08 1.68 1.14 1.68 1.14.97 1.65 2.55 1.17 3.17.9.1-.71.38-1.17.7-1.44-2.45-.28-5.02-1.23-5.02-5.48 0-1.21.43-2.2 1.14-2.98-.12-.28-.5-1.42.1-2.96 0 0 .94-.3 3.08 1.13a10.6 10.6 0 0 1 2.8-.38c.95 0 1.9.12 2.8.38 2.14-1.43 3.08-1.13 3.08-1.13.6 1.54.22 2.68.1 2.96.72.78 1.14 1.77 1.14 2.98 0 4.26-2.58 5.2-5.03 5.48.39.34.73 1 .73 2.03v3.01c0 .29.2.63.76.52 4.4-1.46 7.55-5.58 7.55-10.44C23.25 5.48 18.27.5 12 .5z"/></svg>